<?xml version="1.0" standalone="no"?>
<!DOCTYPE svg PUBLIC "-//W3C//DTD SVG 20010904//EN"
 "http://www.w3.org/TR/2001/REC-SVG-20010904/DTD/svg10.dtd">
<svg version="1.0" xmlns="http://www.w3.org/2000/svg"
 width="823.000000pt" height="823.000000pt" viewBox="0 0 823.000000 823.000000"
 preserveAspectRatio="xMidYMid meet">
<metadata>
Created by potrace 1.11, written by Peter Selinger 2001-2013
</metadata>
<g transform="translate(0.000000,823.000000) scale(0.100000,-0.100000)"
fill="#000000" stroke="none">
<path d="M3461 7295 c-354 -201 -645 -365 -647 -365 -1 0 -35 -19 -76 -43 -40
-24 -98 -57 -128 -74 -30 -16 -122 -68 -205 -115 -82 -47 -187 -105 -233 -128
-46 -24 -97 -57 -113 -74 -59 -61 -57 -23 -57 -1299 l0 -1167 22 -43 c20 -39
89 -101 146 -129 69 -35 242 -131 385 -213 88 -51 255 -146 370 -210 116 -65
255 -144 310 -175 55 -31 121 -69 148 -84 61 -34 97 -54 312 -176 267 -151
267 -151 305 -175 54 -33 117 -55 158 -55 68 1 121 28 559 285 79 46 166 97
195 113 80 45 638 361 913 517 197 113 219 125 304 168 102 51 147 94 158 151
5 22 8 577 7 1232 -1 1118 -2 1192 -18 1220 -27 44 -99 96 -232 165 -65 34
-245 134 -399 222 -154 87 -305 173 -335 190 -30 16 -63 37 -74 46 -10 9 -19
14 -20 12 0 -3 -32 14 -71 36 -38 22 -92 53 -120 69 -149 82 -549 312 -603
346 -118 73 -201 110 -261 115 l-56 4 -644 -366z m577 -397 l-3 -463 -335
-191 c-468 -266 -1007 -573 -1055 -600 -22 -12 -80 -45 -128 -73 -49 -28 -90
-51 -92 -51 -2 0 -42 -23 -90 -51 -47 -28 -89 -48 -93 -45 -3 4 -6 212 -6 463
l-1 457 151 87 c82 47 296 169 475 271 178 102 461 264 629 360 374 215 524
297 543 298 4 0 6 -208 5 -462z m1068 -4 c899 -506 882 -496 937 -527 l37 -21
-1 -463 c0 -255 -4 -463 -8 -463 -15 0 -208 104 -402 218 -201 117 -516 298
-607 349 -26 15 -80 46 -120 70 -41 24 -75 43 -78 43 -2 0 -49 27 -105 60 -55
33 -102 60 -104 60 -1 0 -58 32 -126 72 -68 39 -144 83 -169 97 -25 14 -54 31
-65 38 -17 10 -20 26 -25 120 -3 59 -4 185 -3 278 0 94 2 252 2 353 1 100 3
182 5 182 2 0 377 -210 832 -466z m-1066 -1187 l0 -462 -22 -14 c-13 -8 -149
-89 -303 -179 -154 -91 -292 -172 -307 -181 -110 -65 -228 -131 -233 -131 -4
0 -46 24 -93 53 -48 30 -148 88 -222 129 -74 42 -218 125 -319 186 l-184 111
55 35 c51 32 581 337 723 416 83 46 819 463 865 490 40 24 40 29 40 -453z
m343 405 c56 -32 109 -61 117 -65 8 -4 31 -17 50 -28 19 -12 247 -141 505
-286 259 -146 515 -291 570 -323 55 -31 123 -69 150 -84 178 -99 177 -98 163
-111 -17 -17 -370 -229 -473 -285 -44 -24 -135 -76 -202 -117 -67 -40 -124
-73 -126 -73 -3 0 -52 29 -109 64 -57 35 -122 73 -144 85 -21 12 -52 30 -69
40 -16 9 -111 63 -210 118 -99 55 -214 120 -255 145 l-75 44 -3 467 c-1 257 0
467 3 467 3 0 51 -26 108 -58z m-2012 -1166 c156 -87 160 -89 369 -211 102
-59 217 -128 257 -152 l71 -43 0 -460 c0 -253 -2 -460 -4 -460 -6 0 -66 30
-124 62 -62 35 -461 258 -595 333 l-110 62 -1 459 c-1 253 1 462 3 467 7 13
19 8 134 -57z m3707 -404 l0 -467 -267 -152 c-146 -84 -286 -163 -311 -176
-25 -13 -88 -47 -141 -76 -53 -28 -100 -51 -105 -51 -9 0 -13 914 -4 923 35
32 548 330 790 458 39 21 39 24 38 -459z m-2038 13 l0 -435 -172 -114 c-95
-62 -263 -172 -373 -244 -109 -72 -201 -129 -204 -126 -10 10 -7 906 4 919 9
10 593 349 684 397 19 10 39 22 45 28 5 5 11 10 13 10 2 0 3 -196 3 -435z
m288 398 c26 -16 63 -37 83 -48 20 -11 167 -96 327 -190 l292 -170 0 -458 0
-459 -39 23 c-21 13 -187 119 -370 234 -272 173 -333 215 -341 239 -11 31 -14
856 -4 856 3 0 26 -12 52 -27z m-292 -1891 c-7 -6 -636 358 -636 368 0 4 6 10
13 13 8 3 151 93 318 201 l304 196 3 -387 c1 -212 0 -388 -2 -391z m346 711
c106 -62 459 -293 503 -328 20 -16 20 -16 -4 -36 -25 -21 -196 -123 -301 -181
-36 -20 -85 -47 -110 -61 -142 -78 -202 -108 -207 -103 -3 3 -6 166 -5 363 0
407 0 413 7 413 3 0 55 -30 117 -67z"/>
<path d="M1903 2043 l2 -498 88 -2 c85 -1 88 0 86 20 0 12 -1 35 0 51 l1 29
35 -34 c126 -127 334 -102 429 50 75 119 83 340 16 470 -27 54 -102 117 -162
137 -92 30 -206 9 -271 -52 -19 -18 -29 -21 -32 -12 -2 7 -4 86 -2 176 l2 162
-97 0 -96 0 1 -497z m389 88 c31 -2 86 -60 102 -107 20 -60 16 -216 -7 -260
-19 -37 -71 -83 -95 -85 -68 -6 -104 5 -141 43 -77 79 -81 288 -8 366 27 29
74 49 107 46 14 -1 33 -2 42 -3z"/>
<path d="M2700 2040 l0 -499 95 1 95 0 0 499 0 499 -95 0 -95 0 0 -500z"/>
<path d="M4120 2513 c-1 -42 -1 -881 0 -930 l0 -43 60 1 60 1 1 32 c0 17 0 81
0 142 l1 111 42 42 43 42 121 -185 120 -185 72 1 c54 1 70 4 66 14 -3 7 -68
107 -145 223 -78 116 -141 214 -141 219 0 4 58 64 130 132 71 68 127 126 124
129 -3 3 -37 6 -74 7 l-69 1 -120 -121 c-66 -67 -131 -132 -145 -145 l-25 -24
2 282 2 281 -62 0 c-62 0 -63 0 -63 -27z"/>
<path d="M5390 2470 l0 -70 60 0 60 0 0 70 0 70 -60 0 -60 0 0 -70z"/>
<path d="M7622 2043 l3 -498 60 0 60 0 0 142 0 143 42 42 41 41 122 -186 122
-186 73 1 c51 1 72 5 68 12 -4 6 -69 104 -145 218 -76 114 -139 212 -140 218
-2 6 57 71 131 144 l134 133 -81 -1 -81 -2 -139 -142 c-77 -78 -141 -142 -144
-142 -2 0 -3 120 -3 268 1 147 -1 273 -3 280 -3 8 -25 12 -63 12 l-59 0 2
-497z"/>
<path d="M6545 2497 c-2 -7 -3 -41 -2 -77 l2 -65 68 0 c38 0 72 2 76 5 10 8 7
134 -4 142 -17 12 -136 7 -140 -5z"/>
<path d="M288 2254 c-25 -13 -59 -37 -76 -54 l-31 -30 -3 47 -3 48 -85 0 -85
0 0 -361 0 -362 95 1 95 0 1 231 c1 211 3 235 22 278 29 67 97 98 165 75 49
-16 52 -32 55 -318 l3 -266 90 -1 c49 0 91 3 93 7 3 4 6 104 7 222 2 247 11
295 62 333 61 46 146 36 168 -21 8 -18 12 -120 13 -283 l2 -255 97 -2 96 -1
-2 286 c-2 278 -3 288 -26 335 -40 83 -117 122 -224 115 -72 -5 -122 -26 -170
-73 l-35 -34 -32 36 c-69 75 -196 96 -292 47z"/>
<path d="M1370 2267 c-84 -28 -157 -95 -192 -174 -27 -61 -30 -76 -34 -175 -6
-154 47 -277 144 -339 143 -90 357 -66 457 52 31 38 61 96 53 104 -4 5 -161
35 -180 35 -5 0 -8 -7 -8 -15 0 -8 -13 -29 -28 -46 -37 -41 -109 -50 -162 -21
-39 21 -80 90 -80 132 l0 28 228 0 c125 0 232 1 238 1 15 1 8 123 -12 191 -30
107 -84 170 -179 215 -49 23 -193 30 -245 12z m193 -159 c15 -11 32 -29 39
-41 14 -27 28 -96 19 -98 -3 -1 -66 -2 -140 -3 -93 -1 -135 2 -138 10 -8 22
17 91 43 118 48 47 120 53 177 14z"/>
<path d="M3199 2267 c-94 -35 -164 -104 -201 -196 -33 -83 -32 -261 1 -346 52
-130 162 -198 321 -198 134 0 237 55 290 157 26 48 25 54 -11 61 -120 25 -159
27 -159 11 0 -9 -16 -31 -35 -51 -29 -29 -43 -35 -76 -35 -83 0 -144 53 -155
134 l-6 44 208 0 c115 0 223 1 240 1 l31 1 -4 68 c-9 166 -75 280 -193 335
-57 26 -197 34 -251 14z m188 -154 c30 -20 51 -54 62 -102 10 -48 26 -43 -148
-45 -138 -1 -141 1 -122 63 27 93 131 134 208 84z"/>
<path d="M4888 2266 c-123 -33 -188 -140 -151 -251 28 -81 68 -106 263 -161
142 -40 180 -63 180 -107 0 -39 -23 -75 -63 -98 -54 -30 -168 -25 -220 11 -34
23 -67 75 -67 106 0 10 -7 13 -22 10 -13 -3 -40 -8 -62 -11 -36 -6 -38 -8 -32
-36 26 -130 137 -203 301 -200 180 4 290 93 288 233 0 61 -16 95 -62 135 -23
21 -111 52 -287 102 -80 23 -105 45 -106 90 -2 62 63 97 167 89 75 -6 106 -25
130 -79 16 -35 22 -39 44 -35 14 3 39 8 55 10 16 3 30 7 32 9 12 12 -33 101
-66 131 -67 61 -206 83 -322 52z"/>
<path d="M5817 2264 c-137 -48 -218 -179 -220 -356 -2 -210 105 -354 277 -374
31 -4 56 -9 56 -11 0 -3 -11 -18 -25 -35 -55 -65 -52 -168 6 -210 55 -41 173
-31 181 15 2 12 2 32 0 44 -3 18 -7 21 -25 14 -28 -11 -68 -4 -85 13 -20 19
-17 80 5 118 12 22 38 43 79 63 91 45 130 80 164 148 16 33 29 62 27 64 -2 2
-23 6 -46 9 -23 3 -50 7 -59 8 -10 2 -27 -15 -47 -48 -83 -140 -289 -124 -356
29 -10 22 -19 58 -21 79 l-3 40 268 -1 267 0 0 56 c-1 212 -138 355 -334 350
-39 -1 -88 -8 -109 -15z m231 -121 c46 -37 69 -76 77 -128 l7 -41 -202 0 -201
0 6 35 c21 113 100 175 213 167 52 -3 70 -9 100 -33z"/>
<path d="M5390 1903 l0 -364 58 3 57 3 3 361 2 361 -60 0 -60 0 0 -364z"/>
<path d="M6319 2266 c-8 -5 -5 -87 3 -92 6 -4 103 -7 216 -6 l204 1 -19 -22
c-11 -12 -53 -60 -93 -107 -83 -97 -153 -177 -264 -303 -78 -89 -85 -103 -77
-183 1 -8 89 -12 319 -12 l317 0 1 55 1 55 -242 -4 -243 -3 20 25 c11 14 46
54 78 90 32 36 69 79 81 95 13 17 26 32 29 35 3 3 32 37 65 75 32 39 66 77 75
86 69 72 114 140 115 173 1 20 -1 37 -4 37 -6 2 -580 6 -582 5z"/>
<path d="M6920 2264 c0 -6 51 -150 60 -169 8 -18 70 -180 177 -464 l35 -94
-24 -59 c-12 -33 -36 -71 -52 -85 -25 -21 -37 -24 -89 -21 l-59 3 5 -54 c3
-30 11 -57 17 -61 18 -11 100 -11 134 0 37 12 85 59 113 110 19 34 104 252
178 455 19 55 43 118 52 140 21 53 24 63 71 188 22 59 37 109 33 110 -3 2 -30
3 -60 3 l-55 -1 -77 -210 c-43 -115 -88 -243 -101 -282 -12 -40 -25 -73 -28
-73 -3 0 -11 19 -17 43 -7 23 -51 151 -99 283 l-86 240 -64 0 c-35 1 -64 -1
-64 -2z"/>
<path d="M1793 938 c-41 -11 -73 -52 -73 -93 0 -49 38 -80 122 -100 115 -29
142 -78 64 -119 -53 -27 -140 1 -152 50 -8 33 -44 28 -44 -6 0 -51 74 -100
151 -100 38 0 95 26 113 52 25 36 20 91 -11 122 -14 14 -38 29 -52 32 -83 18
-134 40 -142 61 -11 31 10 54 59 63 46 8 79 -4 96 -35 15 -27 26 -34 43 -28
29 11 2 68 -44 92 -30 15 -91 20 -130 9z"/>
<path d="M4323 940 c-128 -28 -175 -208 -83 -314 87 -98 255 -55 290 75 40
148 -66 270 -207 239z m104 -52 c36 -18 56 -58 59 -118 5 -100 -49 -164 -129
-154 -71 8 -104 45 -112 123 -7 75 17 128 68 151 41 19 75 18 114 -2z"/>
<path d="M871 760 l0 -180 25 0 c23 0 24 2 24 73 l0 73 67 -1 c86 -1 136 21
152 65 15 44 14 65 -4 99 -20 39 -61 51 -171 51 l-93 0 0 -180z m215 115 c20
-27 17 -62 -6 -85 -16 -16 -33 -20 -90 -20 l-70 0 0 65 0 66 76 -4 c61 -3 80
-8 90 -22z"/>
<path d="M1367 918 c-4 -18 -75 -204 -124 -326 -4 -10 2 -13 22 -10 24 3 31
11 45 53 l17 50 78 0 79 0 17 -50 c15 -44 21 -50 47 -53 l30 -3 -73 178 c-70
171 -74 178 -103 181 -24 3 -30 -1 -35 -20z m87 -173 c1 -20 -2 -21 -90 -16
-21 1 -20 3 10 84 l31 83 24 -65 c13 -36 24 -75 25 -86z"/>
<path d="M2290 790 c0 -146 -1 -150 -24 -165 -39 -26 -81 -2 -75 41 1 11 -24
22 -38 17 -19 -8 -16 -47 7 -76 27 -35 81 -45 126 -24 44 21 53 57 54 225 l1
132 -26 0 -25 0 0 -150z"/>
<path d="M2613 923 c-3 -10 -34 -91 -68 -180 l-62 -163 27 0 c23 0 28 6 43 53
l17 54 78 -1 77 -1 20 -52 c18 -46 23 -53 48 -53 16 0 27 4 25 8 -145 359
-142 352 -171 352 -17 0 -30 -6 -34 -17z m65 -108 c32 -91 33 -87 -21 -89 -68
-2 -72 4 -49 57 11 25 23 59 27 77 9 39 16 32 43 -45z"/>
<path d="M3180 920 c0 -18 7 -20 60 -20 l60 0 0 -160 0 -160 25 0 25 0 0 160
c0 88 3 159 8 159 4 -1 31 -1 60 0 45 1 52 4 52 21 0 19 -7 20 -145 20 -138 0
-145 -1 -145 -20z"/>
<path d="M3593 926 c4 -9 25 -90 49 -181 41 -161 43 -165 69 -165 25 0 28 5
63 138 52 190 48 186 75 85 56 -210 61 -223 87 -223 16 0 25 7 29 23 3 12 25
92 49 177 39 145 41 155 23 158 -10 2 -21 1 -24 -1 -6 -7 -51 -181 -68 -262
-8 -40 -8 -39 -36 65 -16 58 -34 126 -41 153 -11 44 -14 47 -43 47 -30 0 -32
-2 -48 -62 -36 -144 -64 -232 -69 -223 -5 9 -20 72 -52 220 -11 55 -15 60 -41
63 -22 3 -26 0 -22 -12z"/>
<path d="M4709 918 c-1 -32 -1 -288 0 -315 1 -17 7 -23 24 -23 23 0 24 3 22
68 -2 85 0 92 39 92 57 0 72 -11 122 -85 41 -62 54 -74 77 -75 15 0 27 2 27 6
0 11 -85 130 -105 146 l-20 17 22 1 c12 0 34 11 49 24 47 39 33 129 -23 155
-13 6 -71 11 -128 11 -102 0 -105 -1 -106 -22z m206 -26 c42 -30 41 -82 -1
-101 -31 -14 -154 -15 -155 -1 -4 30 -5 96 -2 103 5 9 145 9 158 -1z"/>
<path d="M5170 920 c0 -22 0 -22 128 -22 l73 0 -18 -21 c-10 -12 -22 -27 -28
-33 -5 -6 -22 -26 -37 -45 -14 -19 -51 -65 -82 -104 -39 -48 -56 -77 -54 -94
3 -24 5 -24 106 -23 189 1 180 0 178 20 -3 15 -18 18 -115 22 l-112 5 110 137
c61 75 111 146 111 157 0 20 -5 21 -130 21 -123 0 -130 -1 -130 -20z"/>
<path d="M5592 760 l0 -180 24 -1 c31 -1 221 -1 233 0 5 1 11 10 14 21 5 19 0
20 -109 20 l-114 0 0 60 c0 41 4 60 13 61 6 1 52 1 100 1 84 1 88 2 85 22 -3
19 -10 21 -93 23 -49 1 -94 2 -98 2 -4 1 -7 25 -5 54 l3 52 60 2 c33 1 81 2
107 2 38 1 46 4 44 19 -3 15 -18 17 -133 20 l-130 3 -1 -181z"/>
<path d="M6034 760 l0 -180 23 0 c22 0 22 2 25 138 l3 137 90 -137 c79 -120
93 -137 118 -137 l27 -1 0 180 0 180 -23 0 -24 0 1 -135 c1 -74 -2 -135 -5
-135 -3 0 -46 61 -95 135 -75 114 -93 135 -114 135 l-26 0 0 -180z"/>
<path d="M6513 760 l0 -180 26 0 26 0 -2 172 c-1 95 -2 176 -2 181 -1 4 -11 7
-24 7 l-23 0 -1 -180z"/>
<path d="M6843 923 c-18 -50 -126 -329 -130 -335 -2 -5 9 -8 25 -8 26 0 31 5
42 45 7 24 18 49 24 54 6 5 43 9 81 8 l69 -2 21 -52 c17 -46 23 -53 48 -53 27
0 27 0 14 33 -8 17 -40 98 -73 179 -56 140 -60 148 -87 148 -17 0 -30 -6 -34
-17z m75 -140 c20 -49 20 -53 4 -54 -29 -2 -95 0 -98 3 -1 2 9 40 24 84 26 81
27 81 38 50 6 -17 21 -55 32 -83z"/>
</g>
</svg>
